<?xml version="1.0" encoding="UTF-8" standalone="no"?>
<svg
   xmlns:dc="http://purl.org/dc/elements/1.1/"
   xmlns:cc="http://creativecommons.org/ns#"
   xmlns:rdf="http://www.w3.org/1999/02/22-rdf-syntax-ns#"
   xmlns:svg="http://www.w3.org/2000/svg"
   xmlns="http://www.w3.org/2000/svg"
   xmlns:sodipodi="http://sodipodi.sourceforge.net/DTD/sodipodi-0.dtd"
   xmlns:inkscape="http://www.inkscape.org/namespaces/inkscape"
   data-v-29081953=""
   viewBox="0 0 260 65"
   version="1.1"
   id="svg23"
   sodipodi:docname="logo.svg"
   inkscape:version="0.92.4 (unknown)"
   width="260"
   height="65">
  <metadata
     id="metadata27">
    <rdf:RDF>
      <cc:Work
         rdf:about="">
        <dc:format>image/svg+xml</dc:format>
        <dc:type
           rdf:resource="http://purl.org/dc/dcmitype/StillImage" />
        <dc:title></dc:title>
      </cc:Work>
    </rdf:RDF>
  </metadata>
  <sodipodi:namedview
     pagecolor="#ffffff"
     bordercolor="#666666"
     borderopacity="1"
     objecttolerance="10"
     gridtolerance="10"
     guidetolerance="10"
     inkscape:pageopacity="0"
     inkscape:pageshadow="2"
     inkscape:window-width="1855"
     inkscape:window-height="1056"
     id="namedview25"
     showgrid="false"
     inkscape:zoom="1"
     inkscape:cx="-5.5"
     inkscape:cy="33"
     inkscape:window-x="65"
     inkscape:window-y="24"
     inkscape:window-maximized="1"
     inkscape:current-layer="svg23" />
  <!---->
  <defs
     data-v-29081953=""
     id="defs7">
    <linearGradient
       data-v-29081953=""
       id="f7f98acc-dc88-4137-ace0-7e0889889918"
       x1="0"
       y1="0"
       x2="300"
       y2="0"
       gradientUnits="userSpaceOnUse"
       gradientTransform="scale(0.86666667,0.21666667)">
      <stop
         data-v-29081953=""
         offset="0%"
         stop-color="#182471"
         stop-opacity="1"
         id="stop2" />
      <stop
         data-v-29081953=""
         offset="100%"
         stop-color="#2664C8"
         stop-opacity="1"
         id="stop4" />
    </linearGradient>
  </defs>
  <rect
     data-v-29081953=""
     x="0"
     y="0"
     width="260"
     height="65"
     class="logo-background-square"
     id="rect9"
     style="fill:url(#f7f98acc-dc88-4137-ace0-7e0889889918);stroke-width:0.43333334" />
  <defs
     data-v-29081953=""
     id="defs11">
    <!---->
  </defs>
  <g
     data-v-29081953=""
     id="8f1255e5-0398-4e6a-abc1-a012b124da10"
     transform="matrix(2.9702981,0,0,2.9702981,78.544503,4.599)"
     style="fill:#ffffff">
    <path
       d="m 2.79,10.4 h 1.94 l 1.96,3.95 H 8.46 L 6.34,10.23 C 7.59,9.87 8.25,8.9 8.25,7.52 8.25,5.71 7.17,4.58 5.42,4.58 H 1.2 v 9.77 h 1.59 z m 0,-1.33 V 5.96 h 2.52 c 0.79,0 1.27,0.44 1.27,1.22 v 0.67 c 0,0.79 -0.48,1.22 -1.27,1.22 z m 8.24,-3.3 c 0.63,0 0.9,-0.34 0.9,-0.8 V 4.73 c 0,-0.46 -0.27,-0.8 -0.9,-0.8 -0.63,0 -0.91,0.34 -0.91,0.8 v 0.24 c 0,0.46 0.28,0.8 0.91,0.8 z m -0.77,8.58 h 1.53 V 7.07 h -1.53 z m 6.53,0.17 c 1.4,0 2.39,-0.66 2.87,-1.85 l -1.17,-0.62 c -0.3,0.73 -0.82,1.21 -1.7,1.21 -1.12,0 -1.7,-0.77 -1.7,-1.89 v -1.3 c 0,-1.12 0.58,-1.89 1.7,-1.89 0.82,0 1.34,0.43 1.55,1.1 L 19.6,8.69 C 19.17,7.62 18.24,6.9 16.79,6.9 c -2.1,0 -3.31,1.49 -3.31,3.81 0,2.32 1.21,3.81 3.31,3.81 z m 4.32,-0.17 h 1.53 V 9.46 c 0,-0.84 0.78,-1.24 1.58,-1.24 0.94,0 1.37,0.57 1.37,1.69 v 4.44 h 1.53 V 9.73 c 0,-1.79 -0.88,-2.83 -2.37,-2.83 -1.12,0 -1.73,0.59 -2.04,1.37 H 22.64 V 3.99 h -1.53 z m 9.51,0 H 32.2 V 5.98 h 2.91 v -1.4 h -7.4 v 1.4 h 2.91 z m 6.69,-8.58 c 0.63,0 0.9,-0.34 0.9,-0.8 V 4.73 c 0,-0.46 -0.27,-0.8 -0.9,-0.8 -0.63,0 -0.91,0.34 -0.91,0.8 v 0.24 c 0,0.46 0.28,0.8 0.91,0.8 z m -0.77,8.58 h 1.53 V 7.07 h -1.53 z m 6.24,0 V 13.1 h -1 V 3.99 h -1.53 v 8.85 c 0,0.94 0.52,1.51 1.55,1.51 z m 3.91,0 V 13.1 H 45.68 V 3.99 h -1.52 v 8.85 c 0,0.94 0.51,1.51 1.55,1.51 z m 2.23,-8.58 c 0.63,0 0.89,-0.34 0.89,-0.8 V 4.73 c 0,-0.46 -0.26,-0.8 -0.89,-0.8 -0.63,0 -0.91,0.34 -0.91,0.8 v 0.24 c 0,0.46 0.28,0.8 0.91,0.8 z m -0.77,8.58 h 1.52 V 7.07 h -1.52 z m 6.02,0.17 c 1.75,0 2.88,-0.94 2.88,-2.34 0,-1.18 -0.71,-1.88 -2.31,-2.11 L 54.07,9.98 C 53.3,9.86 52.95,9.6 52.95,9.04 c 0,-0.54 0.39,-0.91 1.23,-0.91 0.78,0 1.4,0.38 1.78,0.83 L 56.9,8.06 C 56.24,7.34 55.5,6.9 54.18,6.9 c -1.6,0 -2.7,0.83 -2.7,2.24 0,1.35 0.91,1.99 2.39,2.17 l 0.67,0.09 c 0.76,0.09 1.04,0.44 1.04,0.91 0,0.61 -0.45,0.98 -1.33,0.98 -0.87,0 -1.53,-0.4 -2.06,-1.04 l -0.98,0.9 c 0.69,0.85 1.58,1.37 2.96,1.37 z"
       id="path13"
       inkscape:connector-curvature="0" />
  </g>
  <defs
     data-v-29081953=""
     id="defs16">
    <!---->
  </defs>
  <g
     data-v-29081953=""
     id="80682aee-d154-49ac-95f6-06c649e6ed1f"
     transform="matrix(0.58978981,0,0,0.58978981,6.273754,3.69009)"
     style="fill:#ffffff;stroke:none">
    <path
       d="m 48,43.3 c 9.7,0 17.7,-7.9 17.7,-17.7 C 65.7,15.9 57.7,8 48,8 38.3,8 30.3,15.9 30.3,25.7 c 0,9.7 8,17.6 17.7,17.6 z M 48,12 c 7.5,0 13.7,6.1 13.7,13.7 0,7.5 -6.1,13.7 -13.7,13.7 C 40.5,39.4 34.3,33.3 34.3,25.7 34.3,18.1 40.5,12 48,12 Z m 15.4,32.3 c -0.6,0 -1.1,0.2 -1.5,0.6 -3.7,3.6 -8.7,5.6 -13.9,5.6 -5.2,0 -10.1,-2 -13.9,-5.6 -0.4,-0.4 -1,-0.6 -1.5,-0.6 -10.9,0.8 -19.5,10 -19.5,21 V 75 c 0,7.2 5.8,13 13,13 h 43.7 c 7.2,0 13,-5.8 13,-13 v -9.7 c 0.1,-11 -8.5,-20.2 -19.4,-21 z M 78.9,75 c 0,5 -4,9 -9,9 H 26.1 c -5,0 -9,-4 -9,-9 v -9.7 c 0,-8.6 6.5,-15.8 14.9,-16.9 4.4,4 10,6.1 16,6.1 6,0 11.6,-2.2 16,-6.1 8.4,1 14.9,8.3 14.9,16.9 z"
       id="path18"
       inkscape:connector-curvature="0" />
    <path
       d="m 59.1,62.4 c -0.8,-0.8 -2,-0.8 -2.8,0 -0.8,0.8 -0.8,2 0,2.8 L 60,69 56.3,72.7 c -0.8,0.8 -0.8,2 0,2.8 0.4,0.4 0.9,0.6 1.4,0.6 0.5,0 1,-0.2 1.4,-0.6 l 5.1,-5.1 c 0.8,-0.8 0.8,-2 0,-2.8 z m -7.3,-5.3 c -1.1,-0.3 -2.2,0.3 -2.5,1.4 l -5.6,19.9 c -0.3,1.1 0.3,2.2 1.4,2.5 0.2,0.1 0.4,0.1 0.5,0.1 0.9,0 1.7,-0.6 1.9,-1.5 l 5.6,-19.9 c 0.3,-1.1 -0.3,-2.2 -1.3,-2.5 z m -12.1,5.3 c -0.8,-0.8 -2,-0.8 -2.8,0 l -5.1,5.1 c -0.8,0.8 -0.8,2 0,2.8 l 5.1,5.1 c 0.4,0.4 0.9,0.6 1.4,0.6 0.5,0 1,-0.2 1.4,-0.6 0.8,-0.8 0.8,-2 0,-2.8 L 36,69 39.7,65.3 c 0.8,-0.8 0.8,-2.1 0,-2.9 z"
       id="path20"
       inkscape:connector-curvature="0" />
  </g>
  <!---->
</svg>
